<svg xmlns="http://www.w3.org/2000/svg" viewBox="0 0 330 220">
  <path fill="#0071C5" d="M280.65 91.3c-.93 1.83-2.18 3.33-3.75 4.5-1.57 1.17-3.4 2.05-5.5 2.65-2.1.6-4.38.9-6.85.9-3.9 0-7.24-.87-10-2.6-2.77-1.73-4.84-4.13-6.2-7.2-1.37-3.07-2.05-6.6-2.05-10.6 0-4.03.7-7.6 2.1-10.7 1.4-3.1 3.53-5.53 6.4-7.3 2.87-1.77 6.4-2.65 10.6-2.65 2.13 0 4.14.28 6.02.85 1.88.57 3.54 1.4 4.98 2.5 1.44 1.1 2.6 2.5 3.5 4.2l-6.8 4.2c-.87-1.47-1.95-2.6-3.25-3.4-1.3-.8-2.85-1.2-4.65-1.2-1.93 0-3.6.43-5 1.3-1.4.87-2.48 2.08-3.25 3.65-.77 1.57-1.15 3.4-1.15 5.5 0 2.13.4 3.98 1.2 5.55.8 1.57 1.9 2.8 3.3 3.7 1.4.9 3.03 1.35 4.9 1.35 1.93 0 3.6-.47 5-1.4 1.4-.93 2.53-2.23 3.4-3.9l6.9 4.2zm-28.75 6.9h-8.2V35.4h8.2v62.8zm-19.1 0h-19.5V65h11.2c1.73 0 3.2.1 4.4.3 1.2.2 2.2.53 3 .98.8.45 1.43 1.05 1.9 1.8.47.75.7 1.68.7 2.8 0 1.53-.42 2.78-1.25 3.75-.83.97-2.03 1.62-3.6 1.95v.1c1.93.2 3.42.9 4.45 2.1 1.03 1.2 1.55 2.77 1.55 4.7 0 1.27-.27 2.4-.8 3.4-.53 1-1.3 1.8-2.3 2.4-1 .6-2.22 1.05-3.65 1.35-1.43.3-3 .45-4.7.45h-10.8V65h-10.8v33.2zm8.2-22.3h1.8c1.33 0 2.42-.08 3.25-.25.83-.17 1.5-.45 2-.85.5-.4.75-.95.75-1.65 0-.67-.23-1.2-.7-1.6-.47-.4-1.08-.68-1.85-.85-.77-.17-1.72-.25-2.85-.25h-2.4v5.45zm0 15.5h2.9c1.07 0 2.02-.07 2.85-.2.83-.13 1.52-.37 2.05-.7.53-.33.8-.8.8-1.4 0-.8-.32-1.42-.95-1.87-.63-.45-1.65-.68-3.05-.68h-4.6v4.85zm-33.35 6.8h-8.2V59.4h8.2v38.8zm-12.8-31.9c0-1.2.2-2.32.6-3.35.4-1.03 1-1.92 1.8-2.65.8-.73 1.76-1.3 2.9-1.7 1.13-.4 2.4-.6 3.8-.6 1.4 0 2.65.2 3.78.6 1.13.4 2.08.97 2.85 1.7.77.73 1.35 1.62 1.75 2.65.4 1.03.6 2.15.6 3.35v24.1h-8.2v-21.5c0-1.53-.37-2.73-1.1-3.6-.73-.87-1.8-1.3-3.2-1.3-1.47 0-2.58.45-3.35 1.35-.77.9-1.15 2.12-1.15 3.65v21.4h-8.2V66.3zm-14.7 31.9h-8.2V35.4h8.2v62.8zm116.55-73c15.03 5.43 27 15 35.9 28.7 8.9 13.7 13.35 29.5 13.35 47.4 0 17.87-4.45 33.64-13.35 47.3-8.9 13.67-20.87 23.23-35.9 28.7-2.1.75-4.23 1.43-6.4 2.05v-2.3c3.07-.8 6.07-1.77 9-2.9 14.13-5.5 25.32-14.9 33.55-28.2 8.23-13.3 12.35-28.5 12.35-45.6 0-16.1-3.83-30.5-11.5-43.2-7.67-12.7-18.07-21.9-31.2-27.6-13.13-5.7-27.4-8.55-42.8-8.55-15.4 0-29.67 2.85-42.8 8.55-13.13 5.7-23.53 14.9-31.2 27.6C4.1 63.8.27 78.2.27 94.3c0 17 4.12 32.2 12.35 45.6 8.23 13.3 19.42 22.7 33.55 28.2 2.93 1.13 5.93 2.1 9 2.9v2.3c-2.17-.62-4.3-1.3-6.4-2.05-15.03-5.47-27-15.03-35.9-28.7C4 128.85-.45 113.08-.45 95.2c0-17.9 4.45-33.7 13.35-47.4 8.9-13.7 20.87-23.27 35.9-28.7 14-5.1 29.93-7.65 47.78-7.65 17.85 0 33.78 2.55 47.78 7.65z"/>
</svg>